<?xml version="1.0" encoding="UTF-8"?> <!-- Generator: Adobe Illustrator 24.2.0, SVG Export Plug-In . SVG Version: 6.00 Build 0) --> <svg xmlns="http://www.w3.org/2000/svg" xmlns:xlink="http://www.w3.org/1999/xlink" version="1.1" id="Layer_1" x="0px" y="0px" viewBox="0 0 68 68" style="enable-background:new 0 0 68 68;" xml:space="preserve"> <style type="text/css"> .st0{fill-rule:evenodd;clip-rule:evenodd;fill:#6499C3;} .st1{fill:#FFFFFF;} .st2{fill:#6499C3;} </style> <desc>Created with Sketch.</desc> <path class="st0" d="M193.5-65.9c18.4,0,33.3,14.9,33.3,33.3c0,7.9-2.8,15.2-7.4,20.9v-0.1c0-1.7-0.4-3.4-1.2-4.8 c3-4.6,4.7-10.1,4.7-16c0-16.2-13.1-29.4-29.4-29.4c-16.2,0-29.4,13.2-29.4,29.4c0,5.9,1.7,11.4,4.7,16c-0.7,1.4-1.2,3.1-1.2,4.8 v0.1c-4.6-5.7-7.4-13-7.4-20.9C160.2-51,175.1-65.9,193.5-65.9L193.5-65.9z M193.6-36.4c4.6,0,8.4,3.8,8.4,8.4c0,3-1.5,5.6-3.8,7.1 c2.1,0.9,3.8,2.4,5,4.3c0.7-0.9,1.7-1.7,2.8-2.2c-1.5-1-2.6-2.7-2.6-4.7c0-3.1,2.5-5.6,5.6-5.6s5.6,2.5,5.6,5.6c0,2-1,3.7-2.6,4.7 c2.6,1.2,4.5,3.8,4.5,6.9c0,2.8-1.5,5.2-3.7,6.5c-5.4,3.9-12.1,6.1-19.2,6.1c-7.2,0-13.8-2.3-19.2-6.1c-0.5-0.3-1-0.7-1.4-1.1 c-0.2-0.2-0.5-0.4-0.7-0.6l0.1-0.1c-1.1-1.3-1.7-3-1.7-4.8c0-3.1,1.8-5.7,4.5-6.9c-1.5-1-2.6-2.7-2.6-4.7c0-3.1,2.5-5.6,5.6-5.6 c3.1,0,5.6,2.5,5.6,5.6c0,2-1,3.7-2.6,4.7c1.2,0.5,2.2,1.3,2.9,2.3c1.2-2,2.9-3.5,5.1-4.4c-2.3-1.5-3.8-4.1-3.8-7.1 C185.2-32.7,188.9-36.4,193.6-36.4L193.6-36.4z M193.5-56.3c13.2,0,23.8,10.7,23.8,23.8c0,1.6-0.2,3.2-0.5,4.8 c-0.6-1.1-1.4-2.1-2.4-2.9c0.1-0.6,0.1-1.3,0.1-1.9c0-11.6-9.4-21-21-21s-21,9.4-21,21c0,0.6,0,1.3,0.1,1.9c-1,0.8-1.8,1.8-2.4,2.9 c-0.3-1.6-0.5-3.2-0.5-4.8C169.6-45.6,180.3-56.3,193.5-56.3L193.5-56.3z"></path> <path class="st1" d="M38,15.6c-13.6,1.1-24,8.6-23.2,16.7c0.8,8.1,12.5,13.7,26.1,12.6c13.6-1.1,24-8.6,23.2-16.7 C63.2,20.1,51.6,14.5,38,15.6"></path> <g> <path class="st2" d="M0.9,15.4c0,0,13.4,5.1,14.8,15.4C17.1,41.2,3.8,47.3,3.8,47.3S9.9,40.8,9.7,31C9.4,21.4,0.9,15.4,0.9,15.4"></path> </g> <path class="st2" d="M39.3,43.7c0,0,4.7-3.6,4.7-13c0-8.5-4.6-14-4.6-14s25.6-1.2,25,12.6C63.9,43.1,39.3,43.7,39.3,43.7"></path> <path class="st2" d="M38.1,17.2c-8.2,0.7-15.7,3.9-19.4,8.4c-1.8,2.1-2.6,4.4-2.3,6.6c0.7,7.1,11.9,12.2,24.4,11.2 c8.2-0.7,15.7-3.9,19.4-8.4c1.8-2.1,2.6-4.4,2.3-6.6C61.8,21.2,50.6,16.1,38.1,17.2L38.1,17.2L38.1,17.2z M37.3,46.6 c-13,0-23.3-5.8-24.1-14.1c-0.3-3.1,0.8-6.1,3.1-8.9c4.3-5.2,12.4-8.7,21.5-9.5l0,0c14.7-1.2,26.9,4.9,27.8,14 c0.3,3.1-0.8,6.1-3.1,8.9c-4.3,5.2-12.4,8.7-21.5,9.5C39.8,46.5,38.5,46.6,37.3,46.6L37.3,46.6z"></path> <path class="st1" d="M54.9,25.9c0,2.4-1.9,4.3-4.3,4.3s-4.3-1.9-4.3-4.3c0-2.4,1.9-4.3,4.3-4.3S54.9,23.5,54.9,25.9L54.9,25.9z"></path> </svg> 